<?xml version="1.0" standalone="no"?>
<!DOCTYPE svg PUBLIC "-//W3C//DTD SVG 20010904//EN"
 "http://www.w3.org/TR/2001/REC-SVG-20010904/DTD/svg10.dtd">
<svg version="1.0" xmlns="http://www.w3.org/2000/svg"
 width="512.000000pt" height="512.000000pt" viewBox="0 0 512.000000 512.000000"
 preserveAspectRatio="xMidYMid meet">
<metadata>
Created by potrace 1.14, written by Peter Selinger 2001-2017
</metadata>
<g transform="translate(0.000000,512.000000) scale(0.100000,-0.100000)"
fill="#000000" stroke="none">
<path d="M2 5095 c0 -16 2 -22 5 -12 2 9 2 23 0 30 -3 6 -5 -1 -5 -18z"/>
<path d="M1155 5104 c-50 -18 -109 -75 -138 -134 l-22 -45 0 -965 0 -965 -65
-1 c-102 -1 -177 -43 -230 -129 -20 -32 -49 -174 -86 -415 -3 -19 -12 -75 -21
-125 -8 -49 -17 -103 -20 -120 -2 -16 -22 -138 -44 -270 -38 -231 -42 -256
-54 -318 -5 -24 -58 -104 -358 -531 -94 -135 -103 -156 -86 -191 10 -20 174
-135 564 -396 303 -202 555 -372 562 -378 7 -6 24 -16 38 -23 14 -6 25 -15 25
-19 0 -4 9 -11 20 -14 11 -4 33 -17 48 -30 15 -13 44 -26 63 -30 29 -5 41 -2
61 17 19 17 214 307 293 435 6 9 78 119 160 244 83 126 185 282 227 347 l76
118 279 -1 c153 -1 283 -2 288 -3 6 -1 11 -23 13 -50 7 -117 84 -263 176 -332
41 -30 309 -174 526 -281 27 -13 52 -43 99 -118 34 -55 69 -105 77 -112 38
-31 8 -48 979 564 171 108 347 219 392 247 46 28 87 58 92 68 16 32 1 64 -92
199 -50 74 -144 209 -207 301 -63 92 -141 205 -173 252 -32 47 -105 153 -163
235 -57 83 -128 186 -158 230 -30 44 -91 134 -137 200 -46 66 -135 197 -199
291 -141 209 -158 230 -212 254 -142 64 -297 -37 -300 -195 l-1 -50 -29 27
c-38 35 -118 61 -168 54 -69 -9 -117 -40 -161 -103 -14 -20 -15 80 -16 1030
l0 1052 -23 48 c-27 58 -95 119 -148 135 -29 9 -261 12 -873 11 -705 0 -840
-3 -874 -15z"/>
</g>
</svg>
